<?xml version="1.0" standalone="no"?>
<!DOCTYPE svg PUBLIC "-//W3C//DTD SVG 20010904//EN"
 "http://www.w3.org/TR/2001/REC-SVG-20010904/DTD/svg10.dtd">
<svg version="1.0" xmlns="http://www.w3.org/2000/svg"
 width="260.000000pt" height="260.000000pt" viewBox="0 0 260.000000 260.000000"
 preserveAspectRatio="xMidYMid meet">
<metadata>
Created by potrace 1.14, written by Peter Selinger 2001-2017
</metadata>
<g transform="translate(0.000000,260.000000) scale(0.100000,-0.100000)"
fill="#000000" stroke="none">
<path d="M949 2113 c-1 -5 -2 -53 -3 -108 l-1 -100 -112 -3 c-99 -2 -113 -5
-114 -20 0 -9 -1 -61 -1 -114 l0 -98 -114 0 -114 0 0 -340 0 -340 120 0 c107
0 119 -2 113 -17 -5 -14 -7 -93 -4 -188 l1 -25 113 0 112 0 0 -113 0 -112 570
0 570 0 0 453 0 452 -341 0 -342 0 0 -115 0 -115 114 0 114 0 0 -225 0 -225
-229 0 -228 0 0 113 1 112 -114 5 -115 5 0 338 0 337 112 0 c83 0 113 3 114
13 1 6 2 57 3 112 l1 100 455 5 455 5 0 108 0 107 -567 0 c-313 0 -569 -3
-569 -7z"/>
</g>
</svg>
