<?xml version="1.0" standalone="no"?>
<!DOCTYPE svg PUBLIC "-//W3C//DTD SVG 20010904//EN"
 "http://www.w3.org/TR/2001/REC-SVG-20010904/DTD/svg10.dtd">
<svg version="1.0" xmlns="http://www.w3.org/2000/svg"
 width="266.000000pt" height="266.000000pt" viewBox="0 0 266.000000 266.000000"
 preserveAspectRatio="xMidYMid meet">
<metadata>
Created by potrace 1.14, written by Peter Selinger 2001-2017
</metadata>
<g transform="translate(0.000000,266.000000) scale(0.100000,-0.100000)"
fill="#000000" stroke="none">
<path d="M810 2561 c0 -20 -4 -41 -8 -46 -4 -6 -49 -10 -102 -10 l-95 0 -1
-35 c-2 -67 -7 -70 -101 -68 -91 1 -105 -6 -97 -47 5 -30 -12 -43 -61 -47 -38
-3 -40 -5 -42 -36 -2 -46 -16 -59 -63 -57 l-40 1 -1 -40 c-1 -23 0 -45 1 -51
1 -5 2 -14 2 -20 -1 -5 -2 -25 -3 -42 -2 -32 -4 -33 -46 -33 -23 0 -44 -3 -44
-7 -1 -5 -2 -43 -3 -85 0 -42 -4 -80 -9 -84 -4 -4 -26 -8 -50 -8 l-42 -1 -1
-508 c0 -504 0 -507 20 -508 12 -1 33 0 49 1 30 2 29 6 31 -104 l1 -79 30 -4
c69 -8 71 -9 67 -53 l-4 -40 46 0 c34 0 48 -5 55 -19 6 -10 8 -21 4 -24 -3 -3
-3 -17 1 -30 5 -21 11 -24 53 -23 47 1 48 0 49 -29 1 -16 2 -38 3 -48 1 -14 7
-17 29 -14 50 8 72 -8 72 -52 l0 -41 93 1 c50 0 118 0 150 0 l57 -1 0 -45 c0
-44 9 -54 45 -45 6 1 16 2 23 1 54 -6 101 -5 120 1 14 5 21 4 17 -1 -3 -6 6
-6 24 -1 16 4 32 5 35 2 10 -9 46 -9 46 0 0 5 6 6 13 1 16 -10 76 -10 105 -1
13 5 21 5 19 0 -6 -9 66 -7 82 2 6 4 11 3 11 -2 0 -5 13 -8 30 -6 16 2 35 -2
42 -9 17 -15 237 -13 267 3 12 6 26 8 31 5 5 -3 11 -1 15 5 4 6 10 8 15 5 11
-7 49 32 61 63 6 17 17 22 43 22 54 0 62 6 58 45 -4 29 0 36 19 43 12 5 33 8
45 6 27 -3 39 22 22 44 -11 13 -11 14 1 7 11 -6 13 -4 8 8 -3 10 -2 17 3 17 6
0 11 -11 11 -25 1 -14 3 -29 4 -35 1 -5 3 -19 4 -29 1 -15 8 -19 34 -17 42 3
67 -10 67 -34 0 -11 4 -20 9 -20 6 0 8 -9 6 -20 -3 -18 2 -20 51 -20 36 0 54
-4 55 -12 1 -7 2 -26 4 -43 1 -16 3 -34 4 -40 1 -12 51 -13 51 -1 0 5 6 4 13
-1 6 -5 30 -8 52 -6 92 8 110 1 110 -45 0 -27 0 -27 88 -30 l87 -3 0 250 c0
232 -1 249 -17 246 -24 -3 -55 14 -50 28 2 7 -6 22 -19 34 -21 19 -34 21 -134
21 -61 0 -114 3 -118 6 -10 11 -11 70 -1 83 6 6 17 9 25 6 8 -3 14 1 14 8 0
11 2 11 8 1 5 -7 16 -10 25 -6 14 5 16 20 14 90 -2 94 1 98 66 95 l37 -3 0
512 0 511 -40 -3 c-22 -1 -45 3 -51 9 -6 6 -12 48 -13 94 l-1 83 -35 0 c-19 0
-40 4 -46 10 -6 6 -10 43 -9 81 1 39 -1 76 -3 83 -2 7 -22 12 -48 12 -46 0
-49 3 -56 69 -2 20 -9 24 -36 25 -17 1 -32 -3 -32 -7 0 -5 -5 -5 -12 -1 -6 4
-35 7 -65 6 -57 0 -55 -2 -56 61 0 15 -4 27 -9 27 -5 0 -7 4 -3 9 3 5 -7 9
-22 9 -62 -1 -63 -1 -63 46 l0 44 -550 0 -550 0 0 -37z"/>
</g>
</svg>
